<?xml version="1.0" encoding="UTF-8"?>
<svg width="26" height="26" clip-rule="evenodd" fill-rule="evenodd" version="1.1" xmlns="http://www.w3.org/2000/svg">
 <g transform="translate(1)" fill="#fff">
  <path d="m11.719 17.28c0.552 0 1 0.448 1 1s-0.448 1-1 1-1-0.448-1-1 0.448-1 1-1z"/>
  <path d="m9.378 16.326c0.414 0 0.75 0.336 0.75 0.75s-0.336 0.75-0.75 0.75-0.75-0.336-0.75-0.75 0.336-0.75 0.75-0.75z"/>
  <path d="m14.76 15.78c0.414 0 0.75 0.336 0.75 0.75s-0.336 0.75-0.75 0.75-0.75-0.336-0.75-0.75 0.336-0.75 0.75-0.75z"/>
  <path d="m12.352 20.126c0.414 0 0.75 0.336 0.75 0.75s-0.336 0.75-0.75 0.75-0.75-0.336-0.75-0.75 0.336-0.75 0.75-0.75z"/>
  <path d="m14.268 18.042c0.4968 0 0.9 0.4032 0.9 0.9s-0.4032 0.9-0.9 0.9-0.9-0.4032-0.9-0.9 0.4032-0.9 0.9-0.9z" stroke-width=".9"/>
  <path d="m9.9443 19.394c0.414 0 0.75 0.336 0.75 0.75s-0.336 0.75-0.75 0.75-0.75-0.336-0.75-0.75 0.336-0.75 0.75-0.75z"/>
  <path d="m12.185 4 2.113-4 1.359 0.634-1.817 3.366h4.199c0 0.922 1.092 1.618 1.961 1.618v1.382h-1l-2 17h-10l-2.02-17h-0.98v-1.382c0.87 0 2-0.697 2-1.618zm-5.185 3 1.735 15h6.53l1.735-15h-3.4603v9.2576l-1.5397-0.023596v-9.234z"/>
 </g>
</svg>