<svg height="8.4666mmpx" style="shape-rendering:geometricPrecision; text-rendering:geometricPrecision; image-rendering:optimizeQuality; fill-rule:evenodd; clip-rule:evenodd" version="1.1" viewBox="0 0 846.66 846.66" width="8.4666mmpx" xml:space="preserve" xmlns="http://www.w3.org/2000/svg" xmlns:xlink="http://www.w3.org/1999/xlink" transform="rotate(0) scale(1, 1)"><defs><style type="text/css">.fil0 { fill: #ffffff; fill-rule: nonzero; }</style></defs><g id="Layer_x0020_1"><path class="fil0" d="M423.33 158.86c91.99,0 168.02,73.67 170.95,165.56l70.94 -32.74 54.68 -110.96c12.08,-24.5 49.34,-6.12 37.25,18.38l-57.66 117.02c-1.99,4.36 -5.49,8.06 -10.19,10.22l-94.93 43.82 0 41.48 81.92 -10.6c3.07,-0.38 6.08,-0.08 8.85,0.8l139.73 44.23c26.1,8.24 13.58,47.93 -12.53,39.7l-135.5 -42.96 -82.47 10.67 0 47.01 130.38 32.15c6.6,1.63 11.68,6.24 14.15,12.04l34.08 80.08c10.7,25.14 -27.53,41.41 -38.23,16.27l-30.02 -70.53 -112.35 -27.71c-12.8,82.96 -84.89,145 -169.05,145 -84.05,0 -156.24,-61.93 -169.05,-145l-112.35 27.71 -30.02 70.53c-10.7,25.14 -48.93,8.87 -38.23,-16.27l34.08 -80.08c2.47,-5.8 7.55,-10.41 14.15,-12.04l130.38 -32.15 0 -47.01 -82.47 -10.67 -135.5 42.96c-26.11,8.23 -38.63,-31.46 -12.53,-39.7l139.73 -44.23c2.77,-0.88 5.78,-1.18 8.85,-0.8l81.92 10.6 0 -41.48 -94.93 -43.82c-4.7,-2.16 -8.2,-5.86 -10.19,-10.22l-57.66 -117.02c-12.09,-24.5 25.17,-42.88 37.25,-18.38l54.68 110.96 70.94 32.74c2.93,-91.89 78.96,-165.56 170.95,-165.56zm20.82 43.34l0 442.26c62.17,-10.19 108.57,-64.52 108.57,-127.7l0 -186.86c0,-63.19 -46.4,-117.51 -108.57,-127.7zm-41.65 442.26l0 -442.26c-62.16,10.19 -108.56,64.52 -108.56,127.7l0 186.86c0,63.18 46.4,117.51 108.56,127.7z"/></g></svg>