<svg width="50" height="50" viewBox="0 0 50 50" fill="none" xmlns="http://www.w3.org/2000/svg">
<path fill-rule="evenodd" clip-rule="evenodd" d="M25 50C38.8071 50 50 38.8071 50 25C50 11.1929 38.8071 0 25 0C11.1929 0 0 11.1929 0 25C0 38.8071 11.1929 50 25 50ZM30.2829 10.0019C32.8705 10.4578 35.3454 11.2539 37.6533 12.3343C37.6733 12.3431 37.6904 12.3578 37.7004 12.3783C41.7895 18.515 43.8091 25.4373 43.0541 33.4065C43.0512 33.4403 43.0341 33.4711 43.007 33.4916C39.9098 35.8122 36.9097 37.221 33.951 38.1549C33.9038 38.1695 33.8525 38.152 33.8239 38.1109C33.1403 37.1404 32.5194 36.1171 31.9756 35.0426C31.9442 34.9795 31.9728 34.9033 32.037 34.8784C33.0232 34.4987 33.9609 34.0442 34.863 33.5062C34.9343 33.4637 34.9386 33.3596 34.873 33.3097C34.6817 33.1646 34.4919 33.0122 34.3106 32.8597C34.2764 32.8319 34.2307 32.826 34.1921 32.845C28.3361 35.6055 21.9205 35.6055 15.9945 32.845C15.9559 32.8274 15.9102 32.8333 15.8774 32.8612C15.6962 33.0136 15.5063 33.1646 15.3165 33.3097C15.2508 33.3596 15.2565 33.4637 15.3279 33.5062C16.2299 34.034 17.1677 34.4987 18.1525 34.8798C18.2167 34.9048 18.2467 34.9795 18.2153 35.0426C17.6829 36.1186 17.062 37.1419 16.3655 38.1124C16.3355 38.152 16.2856 38.1695 16.2385 38.1549C13.2941 37.221 10.2939 35.8122 7.19674 33.4916C7.17105 33.4711 7.15249 33.4388 7.14964 33.4051C6.51878 26.512 7.80475 19.5323 12.4991 12.3768C12.5104 12.3578 12.5276 12.3431 12.5476 12.3343C14.8569 11.2524 17.3318 10.4564 19.918 10.0019C19.9651 9.99458 20.0122 10.0166 20.0365 10.0591C20.3562 10.6367 20.7215 11.377 20.9685 11.9825C23.6946 11.5573 26.4635 11.5573 29.2467 11.9825C29.4935 11.3902 29.8461 10.6367 30.1644 10.0591C30.1887 10.0151 30.2358 9.99311 30.2829 10.0019ZM15.846 25.4843C15.846 27.5367 17.3161 29.2079 19.1002 29.2079C20.9128 29.2079 22.3544 27.5367 22.3544 25.4843C22.3829 23.4466 20.9271 21.7607 19.1002 21.7607C17.2876 21.7607 15.846 23.4319 15.846 25.4843ZM27.8779 25.4843C27.8779 27.5367 29.348 29.2079 31.1321 29.2079C32.959 29.2079 34.3863 27.5367 34.3863 25.4843C34.4148 23.4466 32.959 21.7607 31.1321 21.7607C29.3194 21.7607 27.8779 23.4319 27.8779 25.4843Z" fill="#2C2F36"/>
</svg>
