<svg width="129" height="100" viewBox="0 0 129 100" fill="none" xmlns="http://www.w3.org/2000/svg">
<path d="M109.204 8.28945C100.982 4.45263 92.165 1.62582 82.9464 0.00679162C82.7786 -0.0244551 82.6109 0.0536322 82.5244 0.209811C81.3905 2.26092 80.1344 4.93676 79.2549 7.03995C69.3397 5.53028 59.4754 5.53028 49.7635 7.03995C48.8837 4.89001 47.5821 2.26092 46.4431 0.209811C46.3566 0.0588431 46.1889 -0.0192443 46.021 0.00679162C36.8075 1.62065 27.9906 4.44745 19.7635 8.28945C19.6923 8.32068 19.6313 8.37279 19.5907 8.44042C2.86698 33.8506 -1.71436 58.6363 0.533093 83.1146C0.543262 83.2343 0.609363 83.3489 0.700889 83.4217C11.7347 91.6627 22.4229 96.6657 32.9126 99.9818C33.0805 100.034 33.2584 99.9714 33.3652 99.8308C35.8466 96.3846 38.0585 92.7508 39.9549 88.9295C40.0669 88.7058 39.96 88.4402 39.7313 88.3517C36.2228 86.9982 32.8821 85.3479 29.6686 83.4738C29.4144 83.3229 29.394 82.9531 29.6278 82.7761C30.3041 82.2607 30.9805 81.7245 31.6263 81.1831C31.7431 81.0842 31.9059 81.0633 32.0432 81.1258C53.1549 90.9287 76.0108 90.9287 96.8734 81.1258C97.0107 81.0582 97.1735 81.0791 97.2954 81.1779C97.9413 81.7193 98.6176 82.2607 99.2989 82.7761C99.5328 82.9531 99.5175 83.3229 99.2633 83.4738C96.0498 85.3843 92.709 86.9982 89.1955 88.3465C88.9668 88.4351 88.865 88.7058 88.9769 88.9295C90.9141 92.7455 93.126 96.3792 95.5616 99.8256C95.6633 99.9714 95.8463 100.034 96.0142 99.9818C106.555 96.6657 117.243 91.6627 128.277 83.4217C128.373 83.3489 128.434 83.2395 128.445 83.1198C131.134 54.8201 123.939 30.2378 109.372 8.44559C109.336 8.37279 109.275 8.32068 109.204 8.28945ZM43.1076 68.2099C36.7516 68.2099 31.5143 62.2752 31.5143 54.9868C31.5143 47.6984 36.65 41.7638 43.1076 41.7638C49.6159 41.7638 54.8025 47.7505 54.7007 54.9868C54.7007 62.2752 49.5651 68.2099 43.1076 68.2099ZM85.9718 68.2099C79.6159 68.2099 74.3787 62.2752 74.3787 54.9868C74.3787 47.6984 79.5141 41.7638 85.9718 41.7638C92.4803 41.7638 97.6666 47.7505 97.5651 54.9868C97.5651 62.2752 92.4803 68.2099 85.9718 68.2099Z" fill="white"/>
</svg>
