<svg width="100" height="100" viewBox="0 0 100 100" fill="none" xmlns="http://www.w3.org/2000/svg">
<path d="M79.1667 0H20.8333C9.32917 0 0 9.32917 0 20.8333V79.1667C0 90.6708 9.32917 100 20.8333 100H79.1667C90.675 100 100 90.6708 100 79.1667V20.8333C100 9.32917 90.675 0 79.1667 0ZM66.6667 29.1667H58.65C56.0875 29.1667 54.1667 30.2167 54.1667 32.8708V37.5H66.6667L65.675 50H54.1667V83.3333H41.6667V50H33.3333V37.5H41.6667V29.4875C41.6667 21.0625 46.1 16.6667 56.0875 16.6667H66.6667V29.1667Z" fill="white"/>
</svg>
