<svg width="50" height="50" viewBox="0 0 50 50" fill="none" xmlns="http://www.w3.org/2000/svg">
<path d="M22.9152 0.0566521C16.7882 0.617264 11.2973 3.23344 7.03974 7.63962C3.33023 11.4754 1.03993 16.1373 0.227562 21.5073C-0.075854 23.5235 -0.075854 26.7495 0.227562 28.7657C1.03993 34.1358 3.33023 38.7977 7.03974 42.6334C10.5633 46.2823 15.2026 48.8493 19.9104 49.764C20.3705 49.8525 20.8207 49.941 20.9186 49.9607C21.0752 50 21.085 49.5279 21.085 41.2073V32.4146H17.904H14.723V28.7756V25.1365H17.904H21.085V21.6057C21.085 17.7011 21.1437 17.0618 21.682 15.5373C22.7293 12.5376 24.9217 10.6492 28.132 9.99025C29.0521 9.79354 29.3848 9.78371 31.313 9.82305C33.1139 9.86239 35.551 10.0788 36.0404 10.2361C36.1285 10.2656 36.1579 10.9836 36.1579 13.3637V16.452L34.0829 16.511C31.5088 16.5799 30.9802 16.7077 30.1483 17.4749C29.0912 18.4486 28.915 19.2059 28.915 22.9433V25.1365H32.3896C35.4434 25.1365 35.8642 25.1562 35.8642 25.284C35.8642 25.4512 34.9246 31.6966 34.8268 32.149L34.768 32.4146H31.8415H28.915V41.2073V50L29.6785 49.8525C34.6408 48.9378 39.3388 46.3806 42.9603 42.6334C46.6698 38.7977 48.9601 34.1358 49.7724 28.7657C50.0759 26.7495 50.0759 23.5235 49.7724 21.5073C48.9601 16.1373 46.6698 11.4754 42.9603 7.63962C39.0746 3.61701 34.1416 1.06968 28.6606 0.253357C27.0945 0.0271492 24.3344 -0.0712051 22.9152 0.0566521Z" fill="#2C2F36"/>
</svg>
