<?xml version="1.0" encoding="UTF-8"?>
<svg width="72" height="92" fill="none" version="1.1" viewBox="0 0 72 92" xmlns="http://www.w3.org/2000/svg">
 <path d="m61.755 2.0102 9.7322 36.242c0.188 0.7014-0.1809 1.4325-0.8552 1.6923-10.128 3.9307-15.419 2.5234-21.017 1.0343l-0.0026-7e-4c-3.1734-0.8447-6.4061-1.7434-10.942-1.6866-0.5262 0.0037-1.155 0.0261-1.6597 0.0502h-0.0513c-3.3001 0.1726-6.1438 0.7724-8.6084 1.6622-0.0128 0.0046-0.0264 7e-3 -0.04 7e-3 -0.014 0-0.028 0.0025-0.0411 0.0074-1.9844 0.7353-3.6928 1.6148-5.366 2.5702-1.6741 1.1355-4.0143 2.2771-6.0745 4.026-1.3215 1.1218-2.8225 2.4898-2.8888 6.122 0.04571 3.6324 1.7989 8.8763 3.3171 14.53l5.8456 21.767c0.2035 0.7581-0.2431 1.5376-0.9965 1.7406-0.123 0.0341-0.2474 0.0497-0.369 0.0497-0.6233 0-1.1944-0.4174-1.364-1.0506l-19.466-72.485c-0.055128-0.2058-0.053714-0.4117-0.019789-0.609 0.009894-0.0583 0.039579-0.1079 0.056541-0.1647 0.042406-0.1392 0.094702-0.2684 0.17528-0.3876 0.01554-0.0227 0.01696-0.0526 0.03392-0.0753 6.1319-7.9818 13.601-15.514 31.263-12.411 3.8103 0.66866 7.3885 1.1752 10.988 1.1007l0.0481-0.00303c4.8739-0.12026 9.9525-1.3135 16.286-4.6172 0.3774-0.19735 0.8284-0.21438 1.2199-0.03975 0.3916 0.1732 0.6842 0.51536 0.7958 0.92993z" fill="#fff"/>
</svg>
