<svg width="68" height="54" viewBox="0 0 68 54" fill="none" xmlns="http://www.w3.org/2000/svg">
<g style="mix-blend-mode:overlay">
<path d="M57.5649 4.4763C53.2308 2.40442 48.5831 0.877943 43.7237 0.00366747C43.6352 -0.0132058 43.5468 0.0289614 43.5012 0.113298C42.9035 1.2209 42.2414 2.66585 41.7778 3.80158C36.5511 2.98635 31.3514 2.98635 26.2319 3.80158C25.7682 2.6406 25.082 1.2209 24.4816 0.113298C24.436 0.0317752 24.3476 -0.0103919 24.2591 0.00366747C19.4024 0.875149 14.7548 2.40162 10.418 4.4763C10.3804 4.49317 10.3483 4.52131 10.3269 4.55783C1.51128 18.2793 -0.903692 31.6636 0.28101 44.8819C0.286371 44.9466 0.321215 45.0084 0.369461 45.0477C6.18576 49.4978 11.8198 52.1995 17.3493 53.9902C17.4378 54.0183 17.5315 53.9846 17.5879 53.9086C18.8959 52.0477 20.0618 50.0855 21.0615 48.022C21.1205 47.9011 21.0642 47.7577 20.9436 47.7099C19.0942 46.979 17.3332 46.0879 15.6392 45.0759C15.5052 44.9944 15.4945 44.7947 15.6178 44.6991C15.9743 44.4208 16.3308 44.1312 16.6712 43.8389C16.7328 43.7855 16.8186 43.7742 16.891 43.8079C28.0196 49.1015 40.0677 49.1015 51.065 43.8079C51.1374 43.7714 51.2232 43.7827 51.2875 43.8361C51.628 44.1284 51.9845 44.4208 52.3436 44.6991C52.4669 44.7947 52.4588 44.9944 52.3248 45.0759C50.6309 46.1075 48.8699 46.979 47.0178 47.7071C46.8972 47.7549 46.8436 47.9011 46.9026 48.022C47.9237 50.0826 49.0897 52.0448 50.3735 53.9058C50.4272 53.9846 50.5236 54.0183 50.6121 53.9902C56.1684 52.1995 61.8024 49.4978 67.6187 45.0477C67.6697 45.0084 67.7019 44.9493 67.7072 44.8847C69.1251 29.6029 65.3324 16.3284 57.6533 4.56062C57.6345 4.52131 57.6024 4.49317 57.5649 4.4763ZM22.7234 36.8333C19.3729 36.8333 16.6122 33.6286 16.6122 29.6929C16.6122 25.7571 19.3194 22.5524 22.7234 22.5524C26.1541 22.5524 28.8881 25.7853 28.8345 29.6929C28.8345 33.6286 26.1273 36.8333 22.7234 36.8333ZM45.3185 36.8333C41.9681 36.8333 39.2074 33.6286 39.2074 29.6929C39.2074 25.7571 41.9144 22.5524 45.3185 22.5524C48.7493 22.5524 51.4832 25.7853 51.4296 29.6929C51.4296 33.6286 48.7493 36.8333 45.3185 36.8333Z" fill="white"/>
</g>
</svg>
