<svg width="100" height="100" viewBox="0 0 100 100" fill="none" xmlns="http://www.w3.org/2000/svg">
<g clip-path="url(#clip0_2753_9)">
<path d="M50 9.0125C63.35 9.0125 64.9333 9.0625 70.2083 9.30417C83.7583 9.92083 90.0875 16.35 90.7042 29.8C90.9458 35.0708 90.9917 36.6542 90.9917 50.0042C90.9917 63.3583 90.9417 64.9375 90.7042 70.2083C90.0833 83.6458 83.7708 90.0875 70.2083 90.7042C64.9333 90.9458 63.3583 90.9958 50 90.9958C36.65 90.9958 35.0667 90.9458 29.7958 90.7042C16.2125 90.0833 9.91667 83.625 9.3 70.2042C9.05833 64.9333 9.00833 63.3542 9.00833 50C9.00833 36.65 9.0625 35.0708 9.3 29.7958C9.92083 16.35 16.2333 9.91667 29.7958 9.3C35.0708 9.0625 36.65 9.0125 50 9.0125V9.0125ZM50 0C36.4208 0 34.7208 0.0583333 29.3875 0.3C11.2292 1.13333 1.1375 11.2083 0.304167 29.3833C0.0583333 34.7208 0 36.4208 0 50C0 63.5792 0.0583333 65.2833 0.3 70.6167C1.13333 88.775 11.2083 98.8667 29.3833 99.7C34.7208 99.9417 36.4208 100 50 100C63.5792 100 65.2833 99.9417 70.6167 99.7C88.7583 98.8667 98.875 88.7917 99.6958 70.6167C99.9417 65.2833 100 63.5792 100 50C100 36.4208 99.9417 34.7208 99.7 29.3875C98.8833 11.2458 88.7958 1.1375 70.6208 0.304167C65.2833 0.0583333 63.5792 0 50 0V0ZM50 24.325C35.8208 24.325 24.325 35.8208 24.325 50C24.325 64.1792 35.8208 75.6792 50 75.6792C64.1792 75.6792 75.675 64.1833 75.675 50C75.675 35.8208 64.1792 24.325 50 24.325ZM50 66.6667C40.7958 66.6667 33.3333 59.2083 33.3333 50C33.3333 40.7958 40.7958 33.3333 50 33.3333C59.2042 33.3333 66.6667 40.7958 66.6667 50C66.6667 59.2083 59.2042 66.6667 50 66.6667ZM76.6917 17.3125C73.375 17.3125 70.6875 20 70.6875 23.3125C70.6875 26.625 73.375 29.3125 76.6917 29.3125C80.0042 29.3125 82.6875 26.625 82.6875 23.3125C82.6875 20 80.0042 17.3125 76.6917 17.3125Z" fill="white"/>
</g>
<defs>
<clipPath id="clip0_2753_9">
<rect width="100" height="100" fill="white"/>
</clipPath>
</defs>
</svg>
