<svg width="50" height="50" viewBox="0 0 50 50" fill="none" xmlns="http://www.w3.org/2000/svg">
<path fill-rule="evenodd" clip-rule="evenodd" d="M25 50C38.8071 50 50 38.8071 50 25C50 11.1929 38.8071 0 25 0C11.1929 0 0 11.1929 0 25C0 38.8071 11.1929 50 25 50ZM31.7363 11.4347C29.9779 11.3542 29.4502 11.3375 25.0002 11.3375C20.5502 11.3375 20.0238 11.3542 18.2654 11.4333C13.7446 11.6389 11.6404 13.7833 11.4335 18.2653C11.3543 20.0236 11.3363 20.55 11.3363 25C11.3363 29.4514 11.3529 29.9778 11.4335 31.7347C11.6391 36.2083 13.7377 38.3611 18.2654 38.5681C20.0224 38.6486 20.5502 38.6653 25.0002 38.6653C29.4529 38.6653 29.9779 38.6486 31.7363 38.5681C36.2571 38.3625 38.3613 36.2153 38.5682 31.7361C38.6474 29.9792 38.6641 29.4528 38.6641 25.0014C38.6641 20.5514 38.6488 20.0236 38.5682 18.2667C38.3627 13.7833 36.2529 11.6403 31.7363 11.4347ZM18.1293 8.43333C19.9071 8.35278 20.4738 8.33333 25.0002 8.33333C29.5266 8.33333 30.0946 8.35278 31.8738 8.43472C37.9321 8.7125 41.2946 12.0819 41.5668 18.1292C41.6474 19.9069 41.6668 20.4736 41.6668 25C41.6668 29.5264 41.6474 30.0944 41.5654 31.8722C41.2918 37.9306 37.9196 41.2889 31.8724 41.5667C30.0946 41.6472 29.5266 41.6667 25.0002 41.6667C20.4738 41.6667 19.9071 41.6472 18.1279 41.5667C12.0696 41.2889 8.71127 37.925 8.4335 31.8722C8.35294 30.0944 8.3335 29.5264 8.3335 25C8.3335 20.4736 8.35294 19.9069 8.43489 18.1278C8.71266 12.0694 12.0766 8.71111 18.1293 8.43333ZM16.4418 25C16.4418 20.2736 20.2738 16.4417 25.0002 16.4417C29.7266 16.4417 33.5585 20.2736 33.5585 25C33.5585 29.7278 29.7266 33.5597 25.0002 33.5597C20.2738 33.5597 16.4418 29.7264 16.4418 25ZM19.4446 25C19.4446 28.0694 21.9321 30.5556 25.0002 30.5556C28.0682 30.5556 30.5557 28.0694 30.5557 25C30.5557 21.9319 28.0682 19.4444 25.0002 19.4444C21.9321 19.4444 19.4446 21.9319 19.4446 25ZM31.896 16.1042C31.896 15 32.7918 14.1042 33.8974 14.1042C35.0016 14.1042 35.896 15 35.896 16.1042C35.896 17.2083 35.0016 18.1042 33.8974 18.1042C32.7918 18.1042 31.896 17.2083 31.896 16.1042Z" fill="#2C2F36"/>
</svg>
