<?xml version="1.0" encoding="UTF-8"?>
<svg width="100" height="100" fill="none" version="1.1" viewBox="0 0 100 100" xmlns="http://www.w3.org/2000/svg">
 <path d="m11.111 0c-6.1365 0-11.111 4.9748-11.111 11.111v77.777c0 6.1365 4.9748 11.111 11.111 11.111h77.777c6.1365 0 11.111-4.9748 11.111-11.111v-77.777c0-6.1365-4.9748-11.111-11.111-11.111h-77.777zm11.596 13.889c4.8712 0 8.8164 3.9784 8.8164 8.8848 0 4.9065-3.9452 8.8848-8.8164 8.8848s-8.8184-3.9783-8.8184-8.8848c0-4.9064 3.9472-8.8848 8.8184-8.8848zm45.879 22.604c10.213 0 17.525 6.2366 17.525 19.135v30.484h-14.84v-25.275c0-6.9297-2.6323-10.803-8.1172-10.803-5.9668 0-9.0859 4.0305-9.0859 10.803v25.275h-14.301v-48.148h14.301v6.4863s4.3002-7.957 14.518-7.957zm-53.264 1.4707h14.912v48.148h-14.912v-48.148z" fill="#fff"/>
</svg>
