<?xml version="1.0" encoding="UTF-8"?><svg id="Layer_1" xmlns="http://www.w3.org/2000/svg" viewBox="0 0 2131.92 322.04"><defs><style>.cls-1{fill:#003478;}</style></defs><g><path class="cls-1" d="M25.94,158.91H60.35l-20.86,98.33h54.93l-5.09,24.07H0l25.94-122.4Z"/><path class="cls-1" d="M134.6,172.47c18.81-15.6,42.55-16.95,51.54-16.95,48.83,0,54.59,35.09,48.15,64.93-10.34,48.83-48.15,63.74-77.31,63.74-32.55,0-59-17.96-49.34-63.57,1.7-8.14,8.31-32.55,26.96-48.15Zm28.14,86.8c24.24,0,33.06-22.38,36.62-39.33,3.56-17.13,1.36-25.6-1.19-31.02-3.56-6.78-11.02-8.82-18.48-8.82-22.38,0-32.55,19.32-37.13,40.34-4.07,19.5-2.37,38.83,20.18,38.83Z"/><path class="cls-1" d="M336.15,197.39c1.18-12.37-6.61-16.95-16.28-16.95-20.52,0-30.69,18.82-35.44,41.2-1.7,7.46-7.96,38.31,18.31,38.31,17.97,0,22.55-13.06,24.25-17.8h35.26c-8.31,38.32-47.98,41.54-63.92,41.54-11.87,0-32.38-2.03-43.06-16.28-10.34-14.24-8.48-33.73-5.76-46.45,3.56-16.79,11.02-33.57,25.26-46.62,15.6-14.24,32.55-17.96,50.35-17.96,19.84,0,33.91,4.75,41.37,14.92,7.63,10.5,5.43,21.53,4.58,26.1h-34.92Z"/><path class="cls-1" d="M399.88,158.91h34.41l-11.36,53.75,50.52-53.75h40.18l-53.57,53.91,31.03,68.49h-42.04l-26.79-65.1-13.9,65.1h-34.42l25.94-122.4Z"/><path class="cls-1" d="M529.89,158.91h34.25l-10,47.81h40.85l10.01-47.81h34.41l-25.94,122.4h-34.42l10.51-49.5h-41.03l-10.51,49.5h-34.07l25.94-122.4Z"/><path class="cls-1" d="M662.45,159.25h91.89l-4.91,23.4h-58.32l-5.43,25.43h54.93l-5.09,23.4h-54.93l-5.43,26.11h59.68l-5.09,23.73h-93.24l25.94-122.06Z"/><path class="cls-1" d="M775.51,159.25h91.89l-4.91,23.4h-58.32l-5.43,25.43h54.93l-5.09,23.4h-54.93l-5.43,26.11h59.68l-5.09,23.73h-93.24l25.94-122.06Z"/><path class="cls-1" d="M889.25,158.91h51.71c14.58,0,33.73,1.53,44.58,10.17,15.43,12.38,16.11,32.55,12.21,50.69-5.76,27.13-18.65,47.14-45.43,56.8-13.56,4.75-28.48,4.75-36.96,4.75h-52.04l25.94-122.4Zm13.9,98.83h14.58c22.55-.17,38.99-9.83,45.1-38.31,7.8-37.13-20-37.13-30.34-37.13l-13.4-.17-15.94,75.61Z"/><path class="cls-1" d="M1085.2,158.91h53.41l2.88,82.9,36.79-82.9,53.4-.17-25.94,122.58h-32.04l23.4-102.74-50.86,102.74h-30.52l-5.93-103.59-21.19,103.59h-29.33l25.94-122.4Z"/><path class="cls-1" d="M1293.71,158.91h41.37l22.38,122.4h-38.31l-3.22-24.58h-49l-13.56,24.58h-33.91l74.26-122.4Zm19.16,75.27l-4.92-51.37h-.51l-27.8,51.37h33.23Z"/><path class="cls-1" d="M1396.25,158.91h56.62c22.04,0,30.18,1.36,35.77,8.82,3.05,3.73,6.27,10.51,3.56,23.73-2.88,13.39-9.49,19.16-16.1,22.72-8.82,4.91-16.45,5.76-20,6.27l-.17,.68c23.73,.68,22.72,11.2,21.53,30.01-.68,8.31-1.7,21.53-.68,30.18h-36.79c-.51-7.46,.68-16.79,1.87-27.64,1.52-14.75,2.2-20.17-13.06-20.17h-14.24l-10.17,47.81h-34.07l25.94-122.4Zm23.06,52.56h12.72c7.46,0,11.19,0,14.24-1.02,7.96-2.37,11.02-10,11.87-13.9,3.22-15.09-10.01-15.09-19.84-15.09h-12.71l-6.28,30Z"/><path class="cls-1" d="M1541.52,183.15h-37.3l5.09-24.24h109.68l-5.09,24.24h-38.14l-20.86,98.16h-34.25l20.86-98.16Z"/><path class="cls-1" d="M1630.85,158.91h34.92l-25.94,122.4h-34.92l25.94-122.4Z"/><path class="cls-1" d="M1688.48,158.91h46.79l22.04,91.21,18.99-91.21h29.67l-25.94,122.4h-45.77l-22.04-95.1-19.83,95.1h-29.84l25.94-122.4Z"/></g><g><path class="cls-1" d="M1993.81,125.98L2030.44,2c.44-1.59-1.56-2.7-2.68-1.49l-116.44,125.47h-508.7c-2.05,0-2.14,3.12-.09,3.15l497.33,10.89,31.34,.69,30.04,.66,1.87-15.39h-37.3l62.81-57.22-10.92,57.22-15.98,83.73-21.06,110.45c-.38,1.98,2.53,2.66,3.07,.71l28.64-116.39,158.68-75.51c1.5-.74,.98-2.99-.69-2.99h-136.54Zm-4.37,16.01l59.05,1.29-70.92,42.12,11.86-43.41Z"/><path class="cls-1" d="M1903.51,147.78l-10.01-.34-58.63,59.85c-1.38,1.46,.69,3.6,2.19,2.26l66.44-61.78Z"/><path class="cls-1" d="M1952.78,213.74l1.78-15.69-136.8,80.24c-1.73,1.04-.3,3.66,1.51,2.77l133.51-67.33Z"/></g></svg>