<?xml version="1.0"?><svg xmlns="http://www.w3.org/2000/svg" style="color: #2c2f36" viewBox="0 0 50 50" width="55px" height="55px">    <path fill="currentColor" d="M 25 2 C 12.317 2 2 12.317 2 25 C 2 37.683 12.317 48 25 48 C 37.683 48 48 37.683 48 25 C 48 12.317 37.683 2 25 2 z M 13 16 L 37 16 L 37 17.185547 C 34.739802 19.147445 27.004049 25.862584 26.337891 26.443359 C 25.790744 26.918775 25.252524 27 25 27 C 24.748592 27 24.209076 26.92022 23.662109 26.443359 L 23.660156 26.441406 C 23.018458 25.883562 15.840792 19.679983 13 17.224609 L 13 16 z M 37 19.835938 L 37 30.1875 L 30.732422 25.277344 C 33.161482 23.168151 34.851369 21.701006 37 19.835938 z M 13 19.869141 C 15.359997 21.909272 16.890931 23.233761 19.253906 25.277344 L 13 30.140625 L 13 19.869141 z M 20.796875 26.609375 C 21.175957 26.937391 22.259521 27.874554 22.347656 27.951172 C 23.29869 28.780311 24.319408 29 25 29 C 25.679162 29 26.700195 28.782129 27.652344 27.953125 L 27.652344 27.951172 C 27.744612 27.870735 28.804049 26.951465 29.193359 26.613281 L 37 32.726562 L 37 34 L 13 34 L 13 32.675781 L 20.796875 26.609375 z"/></svg>