<svg width="100" height="100" viewBox="0 0 100 100" fill="none" xmlns="http://www.w3.org/2000/svg">
<path d="M29.1667 66.6667H83.3333V70.8333H29.1667V66.6667ZM83.3333 54.1666H29.1667V58.3333H83.3333V54.1666ZM83.3333 29.1666H62.5V33.3333H83.3333V29.1666ZM83.3333 41.6666H62.5V45.8333H83.3333V41.6666ZM12.5 8.33331V79.9958C12.5 83.2083 8.33333 83.2083 8.33333 79.9958V16.6666H0V83.25C0 87.8958 3.77083 91.6667 8.41667 91.6667H91.575C96.2292 91.6667 100 87.9 100 83.25V8.33331H12.5V8.33331ZM91.6667 79.1667H20.8333V16.6666H91.6667V79.1667ZM54.1667 29.1666H29.1667V45.8333H54.1667V29.1666Z" fill="white"/>
</svg>
